M48
; DRILL file {KiCad (6.0.8-1)-1} date 2023 January 29, Sunday 19:27:49
; FORMAT={-:-/ absolute / inch / decimal}
; #@! TF.CreationDate,2023-01-29T19:27:49+03:00
; #@! TF.GenerationSoftware,Kicad,Pcbnew,(6.0.8-1)-1
; #@! TF.FileFunction,Plated,1,2,PTH
FMAT,2
INCH
; #@! TA.AperFunction,Plated,PTH,ComponentDrill
T1C0.0118
; #@! TA.AperFunction,Plated,PTH,ComponentDrill
T2C0.0430
; #@! TA.AperFunction,Plated,PTH,ComponentDrill
T3C0.0590
%
G90
G05
T1
X4.3031Y0.3563
X4.6181Y0.3563
T2
X4.95Y1.0638
X4.95Y0.9638
X4.95Y0.8638
X4.95Y0.7638
X4.95Y0.6638
X4.95Y0.5638
X4.95Y0.4638
X4.95Y0.3638
X4.95Y0.2638
X4.95Y0.1638
X4.95Y0.0638
X4.95Y-0.0362
X5.55Y1.0638
X5.55Y0.9638
X5.55Y0.8638
X5.55Y0.7638
X5.55Y0.6638
X5.55Y0.5638
X5.55Y0.4638
X5.55Y0.3638
X5.55Y0.2638
X5.55Y0.1638
X5.55Y0.0638
X5.55Y-0.0362
T3
X0.65Y0.55
X0.65Y-0.2
X0.9Y0.65
X0.9Y-0.1
X1.4Y0.55
X1.4Y-0.2
X1.4Y-0.95
X1.65Y0.65
X1.65Y-0.1
X1.65Y-0.85
X2.15Y0.7469
X2.15Y-0.0031
X2.4Y0.8469
X2.4Y0.0969
X2.9Y0.865
X2.9Y0.115
X2.9Y-0.635
X3.15Y0.965
X3.15Y0.215
X3.15Y-0.535
X3.275Y-1.7
X3.525Y-1.6
X3.65Y0.6287
X3.65Y-0.1213
X3.65Y-0.8713
X3.9Y0.7287
X3.9Y-0.0213
X3.9Y-0.7713
X4.1022Y-1.7524
X4.3679Y-1.7088
X4.4Y0.6287
X4.4Y-0.8713
X4.65Y0.7287
X4.65Y-0.7713
X4.8967Y-1.9933
X5.1655Y-2.0084
T0
M30
