%TF.GenerationSoftware,KiCad,Pcbnew,(6.0.8-1)-1*%
%TF.CreationDate,2023-01-29T19:27:54+03:00*%
%TF.ProjectId,lol,6c6f6c2e-6b69-4636-9164-5f7063625858,v1.0.0*%
%TF.SameCoordinates,Original*%
%TF.FileFunction,Soldermask,Bot*%
%TF.FilePolarity,Negative*%
%FSLAX46Y46*%
G04 Gerber Fmt 4.6, Leading zero omitted, Abs format (unit mm)*
G04 Created by KiCad (PCBNEW (6.0.8-1)-1) date 2023-01-29 19:27:54*
%MOMM*%
%LPD*%
G01*
G04 APERTURE LIST*
G04 Aperture macros list*
%AMRoundRect*
0 Rectangle with rounded corners*
0 $1 Rounding radius*
0 $2 $3 $4 $5 $6 $7 $8 $9 X,Y pos of 4 corners*
0 Add a 4 corners polygon primitive as box body*
4,1,4,$2,$3,$4,$5,$6,$7,$8,$9,$2,$3,0*
0 Add four circle primitives for the rounded corners*
1,1,$1+$1,$2,$3*
1,1,$1+$1,$4,$5*
1,1,$1+$1,$6,$7*
1,1,$1+$1,$8,$9*
0 Add four rect primitives between the rounded corners*
20,1,$1+$1,$2,$3,$4,$5,0*
20,1,$1+$1,$4,$5,$6,$7,0*
20,1,$1+$1,$6,$7,$8,$9,0*
20,1,$1+$1,$8,$9,$2,$3,0*%
G04 Aperture macros list end*
%ADD10C,4.087800*%
%ADD11C,1.801800*%
%ADD12C,3.100000*%
%ADD13RoundRect,0.050000X1.275000X1.250000X-1.275000X1.250000X-1.275000X-1.250000X1.275000X-1.250000X0*%
%ADD14C,2.386000*%
%ADD15RoundRect,0.050000X-0.876300X0.876300X-0.876300X-0.876300X0.876300X-0.876300X0.876300X0.876300X0*%
%ADD16C,1.852600*%
%ADD17RoundRect,0.050000X-0.450000X-0.850000X0.450000X-0.850000X0.450000X0.850000X-0.450000X0.850000X0*%
G04 APERTURE END LIST*
D10*
%TO.C,S1*%
X19050000Y0D03*
D11*
X24130000Y0D03*
X13970000Y0D03*
D12*
X21590000Y5080000D03*
X15240000Y2540000D03*
D13*
X11965000Y2540000D03*
X24892000Y5080000D03*
%TD*%
D10*
%TO.C,S2*%
X19050000Y0D03*
D11*
X13970000Y0D03*
X24130000Y0D03*
D14*
X16510000Y-5080000D03*
X22860000Y-2540000D03*
%TD*%
D10*
%TO.C,S3*%
X19050000Y19050000D03*
D11*
X24130000Y19050000D03*
X13970000Y19050000D03*
D12*
X21590000Y24130000D03*
X15240000Y21590000D03*
D13*
X11965000Y21590000D03*
X24892000Y24130000D03*
%TD*%
D10*
%TO.C,S4*%
X19050000Y19050000D03*
D11*
X13970000Y19050000D03*
X24130000Y19050000D03*
D14*
X16510000Y13970000D03*
X22860000Y16510000D03*
%TD*%
D10*
%TO.C,S5*%
X38100000Y-19050000D03*
D11*
X43180000Y-19050000D03*
X33020000Y-19050000D03*
D12*
X40640000Y-13970000D03*
X34290000Y-16510000D03*
D13*
X31015000Y-16510000D03*
X43942000Y-13970000D03*
%TD*%
D10*
%TO.C,S6*%
X38100000Y-19050000D03*
D11*
X33020000Y-19050000D03*
X43180000Y-19050000D03*
D14*
X35560000Y-24130000D03*
X41910000Y-21590000D03*
%TD*%
D10*
%TO.C,S7*%
X38100000Y0D03*
D11*
X43180000Y0D03*
X33020000Y0D03*
D12*
X40640000Y5080000D03*
X34290000Y2540000D03*
D13*
X31015000Y2540000D03*
X43942000Y5080000D03*
%TD*%
D10*
%TO.C,S8*%
X38100000Y0D03*
D11*
X33020000Y0D03*
X43180000Y0D03*
D14*
X35560000Y-5080000D03*
X41910000Y-2540000D03*
%TD*%
D10*
%TO.C,S9*%
X38100000Y19050000D03*
D11*
X43180000Y19050000D03*
X33020000Y19050000D03*
D12*
X40640000Y24130000D03*
X34290000Y21590000D03*
D13*
X31015000Y21590000D03*
X43942000Y24130000D03*
%TD*%
D10*
%TO.C,S10*%
X38100000Y19050000D03*
D11*
X33020000Y19050000D03*
X43180000Y19050000D03*
D14*
X35560000Y13970000D03*
X41910000Y16510000D03*
%TD*%
D10*
%TO.C,S11*%
X57150000Y5000000D03*
D11*
X62230000Y5000000D03*
X52070000Y5000000D03*
D12*
X59690000Y10080000D03*
X53340000Y7540000D03*
D13*
X50065000Y7540000D03*
X62992000Y10080000D03*
%TD*%
D10*
%TO.C,S12*%
X57150000Y5000000D03*
D11*
X52070000Y5000000D03*
X62230000Y5000000D03*
D14*
X54610000Y-80000D03*
X60960000Y2460000D03*
%TD*%
D10*
%TO.C,S13*%
X57150000Y24050000D03*
D11*
X62230000Y24050000D03*
X52070000Y24050000D03*
D12*
X59690000Y29130000D03*
X53340000Y26590000D03*
D13*
X50065000Y26590000D03*
X62992000Y29130000D03*
%TD*%
D10*
%TO.C,S14*%
X57150000Y24050000D03*
D11*
X52070000Y24050000D03*
X62230000Y24050000D03*
D14*
X54610000Y18970000D03*
X60960000Y21510000D03*
%TD*%
D10*
%TO.C,S15*%
X76200000Y-11050000D03*
D11*
X81280000Y-11050000D03*
X71120000Y-11050000D03*
D12*
X78740000Y-5970000D03*
X72390000Y-8510000D03*
D13*
X69115000Y-8510000D03*
X82042000Y-5970000D03*
%TD*%
D10*
%TO.C,S16*%
X76200000Y-11050000D03*
D11*
X71120000Y-11050000D03*
X81280000Y-11050000D03*
D14*
X73660000Y-16130000D03*
X80010000Y-13590000D03*
%TD*%
D10*
%TO.C,S17*%
X76200000Y8000000D03*
D11*
X81280000Y8000000D03*
X71120000Y8000000D03*
D12*
X78740000Y13080000D03*
X72390000Y10540000D03*
D13*
X69115000Y10540000D03*
X82042000Y13080000D03*
%TD*%
D10*
%TO.C,S18*%
X76200000Y8000000D03*
D11*
X71120000Y8000000D03*
X81280000Y8000000D03*
D14*
X73660000Y2920000D03*
X80010000Y5460000D03*
%TD*%
D10*
%TO.C,S19*%
X76200000Y27050000D03*
D11*
X81280000Y27050000D03*
X71120000Y27050000D03*
D12*
X78740000Y32130000D03*
X72390000Y29590000D03*
D13*
X69115000Y29590000D03*
X82042000Y32130000D03*
%TD*%
D10*
%TO.C,S20*%
X76200000Y27050000D03*
D11*
X71120000Y27050000D03*
X81280000Y27050000D03*
D14*
X73660000Y21970000D03*
X80010000Y24510000D03*
%TD*%
D10*
%TO.C,S21*%
X95250000Y-17050000D03*
D11*
X100330000Y-17050000D03*
X90170000Y-17050000D03*
D12*
X97790000Y-11970000D03*
X91440000Y-14510000D03*
D13*
X88165000Y-14510000D03*
X101092000Y-11970000D03*
%TD*%
D10*
%TO.C,S22*%
X95250000Y-17050000D03*
D11*
X90170000Y-17050000D03*
X100330000Y-17050000D03*
D14*
X92710000Y-22130000D03*
X99060000Y-19590000D03*
%TD*%
D10*
%TO.C,S23*%
X95250000Y2000000D03*
D11*
X100330000Y2000000D03*
X90170000Y2000000D03*
D12*
X97790000Y7080000D03*
X91440000Y4540000D03*
D13*
X88165000Y4540000D03*
X101092000Y7080000D03*
%TD*%
D10*
%TO.C,S24*%
X95250000Y2000000D03*
D11*
X90170000Y2000000D03*
X100330000Y2000000D03*
D14*
X92710000Y-3080000D03*
X99060000Y-540000D03*
%TD*%
D10*
%TO.C,S25*%
X95250000Y21050000D03*
D11*
X100330000Y21050000D03*
X90170000Y21050000D03*
D12*
X97790000Y26130000D03*
X91440000Y23590000D03*
D13*
X88165000Y23590000D03*
X101092000Y26130000D03*
%TD*%
D10*
%TO.C,S26*%
X95250000Y21050000D03*
D11*
X90170000Y21050000D03*
X100330000Y21050000D03*
D14*
X92710000Y15970000D03*
X99060000Y18510000D03*
%TD*%
D10*
%TO.C,S27*%
X114300000Y-17050000D03*
D11*
X119380000Y-17050000D03*
X109220000Y-17050000D03*
D12*
X116840000Y-11970000D03*
X110490000Y-14510000D03*
D13*
X107215000Y-14510000D03*
X120142000Y-11970000D03*
%TD*%
D10*
%TO.C,S28*%
X114300000Y-17050000D03*
D11*
X109220000Y-17050000D03*
X119380000Y-17050000D03*
D14*
X111760000Y-22130000D03*
X118110000Y-19590000D03*
%TD*%
D10*
%TO.C,S29*%
X114300000Y21050000D03*
D11*
X119380000Y21050000D03*
X109220000Y21050000D03*
D12*
X116840000Y26130000D03*
X110490000Y23590000D03*
D13*
X107215000Y23590000D03*
X120142000Y26130000D03*
%TD*%
D10*
%TO.C,S30*%
X114300000Y21050000D03*
D11*
X109220000Y21050000D03*
X119380000Y21050000D03*
D14*
X111760000Y15970000D03*
X118110000Y18510000D03*
%TD*%
D10*
%TO.C,S31*%
X85725000Y-38100000D03*
D11*
X90805000Y-38100000D03*
X80645000Y-38100000D03*
D12*
X88265000Y-33020000D03*
X81915000Y-35560000D03*
D13*
X78640000Y-35560000D03*
X91567000Y-33020000D03*
%TD*%
D10*
%TO.C,S32*%
X85725000Y-38100000D03*
D11*
X80645000Y-38100000D03*
X90805000Y-38100000D03*
D14*
X83185000Y-43180000D03*
X89535000Y-40640000D03*
%TD*%
D10*
%TO.C,S33*%
X107775000Y-40100000D03*
D11*
X112734584Y-41199513D03*
X102815416Y-39000487D03*
D12*
X111354305Y-35690173D03*
X104605069Y-36795573D03*
D13*
X101407699Y-36086733D03*
X114578035Y-36404857D03*
%TD*%
D10*
%TO.C,S34*%
X107775000Y-40100000D03*
D11*
X102815416Y-39000487D03*
X112734584Y-41199513D03*
D14*
X104195695Y-44509827D03*
X110944931Y-43404427D03*
%TD*%
D10*
%TO.C,S35*%
X128825000Y-47100000D03*
D11*
X133429044Y-49246901D03*
X124220956Y-44953099D03*
D12*
X133273923Y-43569407D03*
X126445418Y-43187803D03*
D13*
X123477260Y-41803728D03*
X136266551Y-44964892D03*
%TD*%
D10*
%TO.C,S36*%
X128825000Y-47100000D03*
D11*
X124220956Y-44953099D03*
X133429044Y-49246901D03*
D14*
X124376077Y-50630593D03*
X131204582Y-51012197D03*
%TD*%
D15*
%TO.C,MCU1*%
X125730000Y27020000D03*
D16*
X125730000Y24480000D03*
X125730000Y21940000D03*
X125730000Y19400000D03*
X125730000Y16860000D03*
X125730000Y14320000D03*
X125730000Y11780000D03*
X125730000Y9240000D03*
X125730000Y6700000D03*
X125730000Y4160000D03*
X125730000Y1620000D03*
X125730000Y-920000D03*
X140970000Y27020000D03*
X140970000Y24480000D03*
X140970000Y21940000D03*
X140970000Y19400000D03*
X140970000Y16860000D03*
X140970000Y14320000D03*
X140970000Y11780000D03*
X140970000Y9240000D03*
X140970000Y6700000D03*
X140970000Y4160000D03*
X140970000Y1620000D03*
X140970000Y-920000D03*
%TD*%
D17*
%TO.C,*%
X111600000Y9050000D03*
X115000000Y9050000D03*
%TD*%
M02*
