M48
; DRILL file {KiCad (6.0.8-1)-1} date 2023 January 29, Sunday 19:27:49
; FORMAT={-:-/ absolute / inch / decimal}
; #@! TF.CreationDate,2023-01-29T19:27:49+03:00
; #@! TF.GenerationSoftware,Kicad,Pcbnew,(6.0.8-1)-1
; #@! TF.FileFunction,NonPlated,1,2,NPTH
FMAT,2
INCH
; #@! TA.AperFunction,NonPlated,NPTH,ComponentDrill
T1C0.0670
; #@! TA.AperFunction,NonPlated,NPTH,ComponentDrill
T2C0.1181
; #@! TA.AperFunction,NonPlated,NPTH,ComponentDrill
T3C0.1570
%
G90
G05
T1
X0.55Y0.75
X0.55Y0.75
X0.55Y0.0
X0.55Y0.0
X0.95Y0.75
X0.95Y0.75
X0.95Y0.0
X0.95Y0.0
X1.3Y0.75
X1.3Y0.75
X1.3Y0.0
X1.3Y0.0
X1.3Y-0.75
X1.3Y-0.75
X1.7Y0.75
X1.7Y0.75
X1.7Y0.0
X1.7Y0.0
X1.7Y-0.75
X1.7Y-0.75
X2.05Y0.9469
X2.05Y0.9469
X2.05Y0.1969
X2.05Y0.1969
X2.45Y0.9469
X2.45Y0.9469
X2.45Y0.1969
X2.45Y0.1969
X2.8Y1.065
X2.8Y1.065
X2.8Y0.315
X2.8Y0.315
X2.8Y-0.435
X2.8Y-0.435
X3.175Y-1.5
X3.175Y-1.5
X3.2Y1.065
X3.2Y1.065
X3.2Y0.315
X3.2Y0.315
X3.2Y-0.435
X3.2Y-0.435
X3.55Y0.8287
X3.55Y0.8287
X3.55Y0.0787
X3.55Y0.0787
X3.55Y-0.6713
X3.55Y-0.6713
X3.575Y-1.5
X3.575Y-1.5
X3.95Y0.8287
X3.95Y0.8287
X3.95Y0.0787
X3.95Y0.0787
X3.95Y-0.6713
X3.95Y-0.6713
X4.0479Y-1.5355
X4.0479Y-1.5355
X4.3Y0.8287
X4.3Y0.8287
X4.3Y-0.6713
X4.3Y-0.6713
X4.4384Y-1.622
X4.4384Y-1.622
X4.7Y0.8287
X4.7Y0.8287
X4.7Y-0.6713
X4.7Y-0.6713
X4.8906Y-1.7698
X4.8906Y-1.7698
X5.2531Y-1.9389
X5.2531Y-1.9389
T2
X0.6Y0.85
X0.6Y0.1
X0.85Y0.95
X0.85Y0.2
X1.35Y0.85
X1.35Y0.1
X1.35Y-0.65
X1.6Y0.95
X1.6Y0.2
X1.6Y-0.55
X2.1Y1.0469
X2.1Y0.2969
X2.35Y1.1469
X2.35Y0.3969
X2.85Y1.165
X2.85Y0.415
X2.85Y-0.335
X3.1Y1.265
X3.1Y0.515
X3.1Y-0.235
X3.225Y-1.4
X3.475Y-1.3
X3.6Y0.9287
X3.6Y0.1787
X3.6Y-0.5713
X3.85Y1.0287
X3.85Y0.2787
X3.85Y-0.4713
X4.1183Y-1.4486
X4.35Y0.9287
X4.35Y-0.5713
X4.384Y-1.4051
X4.6Y1.0287
X4.6Y-0.4713
X4.9782Y-1.7003
X5.247Y-1.7153
T3
X0.75Y0.75
X0.75Y0.75
X0.75Y0.0
X0.75Y0.0
X1.5Y0.75
X1.5Y0.75
X1.5Y0.0
X1.5Y0.0
X1.5Y-0.75
X1.5Y-0.75
X2.25Y0.9469
X2.25Y0.9469
X2.25Y0.1969
X2.25Y0.1969
X3.0Y1.065
X3.0Y1.065
X3.0Y0.315
X3.0Y0.315
X3.0Y-0.435
X3.0Y-0.435
X3.375Y-1.5
X3.375Y-1.5
X3.75Y0.8287
X3.75Y0.8287
X3.75Y0.0787
X3.75Y0.0787
X3.75Y-0.6713
X3.75Y-0.6713
X4.2431Y-1.5787
X4.2431Y-1.5787
X4.5Y0.8287
X4.5Y0.8287
X4.5Y-0.6713
X4.5Y-0.6713
X5.0719Y-1.8543
X5.0719Y-1.8543
T0
M30
