%TF.GenerationSoftware,KiCad,Pcbnew,(6.0.8-1)-1*%
%TF.CreationDate,2023-01-29T19:27:53+03:00*%
%TF.ProjectId,lol,6c6f6c2e-6b69-4636-9164-5f7063625858,v1.0.0*%
%TF.SameCoordinates,Original*%
%TF.FileFunction,Legend,Top*%
%TF.FilePolarity,Positive*%
%FSLAX46Y46*%
G04 Gerber Fmt 4.6, Leading zero omitted, Abs format (unit mm)*
G04 Created by KiCad (PCBNEW (6.0.8-1)-1) date 2023-01-29 19:27:53*
%MOMM*%
%LPD*%
G01*
G04 APERTURE LIST*
%ADD10C,0.150000*%
%ADD11R,1.752600X1.752600*%
%ADD12C,1.752600*%
G04 APERTURE END LIST*
D10*
%TO.C,MCU1*%
X127997619Y26658095D02*
X127730952Y27039047D01*
X127540476Y26658095D02*
X127540476Y27458095D01*
X127845238Y27458095D01*
X127921428Y27420000D01*
X127959523Y27381904D01*
X127997619Y27305714D01*
X127997619Y27191428D01*
X127959523Y27115238D01*
X127921428Y27077142D01*
X127845238Y27039047D01*
X127540476Y27039047D01*
X128302380Y26886666D02*
X128683333Y26886666D01*
X128226190Y26658095D02*
X128492857Y27458095D01*
X128759523Y26658095D01*
X128950000Y27458095D02*
X129140476Y26658095D01*
X129292857Y27229523D01*
X129445238Y26658095D01*
X129635714Y27458095D01*
X127940476Y24880000D02*
X127864285Y24918095D01*
X127750000Y24918095D01*
X127635714Y24880000D01*
X127559523Y24803809D01*
X127521428Y24727619D01*
X127483333Y24575238D01*
X127483333Y24460952D01*
X127521428Y24308571D01*
X127559523Y24232380D01*
X127635714Y24156190D01*
X127750000Y24118095D01*
X127826190Y24118095D01*
X127940476Y24156190D01*
X127978571Y24194285D01*
X127978571Y24460952D01*
X127826190Y24460952D01*
X128321428Y24118095D02*
X128321428Y24918095D01*
X128778571Y24118095D01*
X128778571Y24918095D01*
X129159523Y24118095D02*
X129159523Y24918095D01*
X129350000Y24918095D01*
X129464285Y24880000D01*
X129540476Y24803809D01*
X129578571Y24727619D01*
X129616666Y24575238D01*
X129616666Y24460952D01*
X129578571Y24308571D01*
X129540476Y24232380D01*
X129464285Y24156190D01*
X129350000Y24118095D01*
X129159523Y24118095D01*
X128111904Y21578095D02*
X127845238Y21959047D01*
X127654761Y21578095D02*
X127654761Y22378095D01*
X127959523Y22378095D01*
X128035714Y22340000D01*
X128073809Y22301904D01*
X128111904Y22225714D01*
X128111904Y22111428D01*
X128073809Y22035238D01*
X128035714Y21997142D01*
X127959523Y21959047D01*
X127654761Y21959047D01*
X128416666Y21616190D02*
X128530952Y21578095D01*
X128721428Y21578095D01*
X128797619Y21616190D01*
X128835714Y21654285D01*
X128873809Y21730476D01*
X128873809Y21806666D01*
X128835714Y21882857D01*
X128797619Y21920952D01*
X128721428Y21959047D01*
X128569047Y21997142D01*
X128492857Y22035238D01*
X128454761Y22073333D01*
X128416666Y22149523D01*
X128416666Y22225714D01*
X128454761Y22301904D01*
X128492857Y22340000D01*
X128569047Y22378095D01*
X128759523Y22378095D01*
X128873809Y22340000D01*
X129102380Y22378095D02*
X129559523Y22378095D01*
X129330952Y21578095D02*
X129330952Y22378095D01*
X127483333Y19838095D02*
X127750000Y19038095D01*
X128016666Y19838095D01*
X128740476Y19114285D02*
X128702380Y19076190D01*
X128588095Y19038095D01*
X128511904Y19038095D01*
X128397619Y19076190D01*
X128321428Y19152380D01*
X128283333Y19228571D01*
X128245238Y19380952D01*
X128245238Y19495238D01*
X128283333Y19647619D01*
X128321428Y19723809D01*
X128397619Y19800000D01*
X128511904Y19838095D01*
X128588095Y19838095D01*
X128702380Y19800000D01*
X128740476Y19761904D01*
X129540476Y19114285D02*
X129502380Y19076190D01*
X129388095Y19038095D01*
X129311904Y19038095D01*
X129197619Y19076190D01*
X129121428Y19152380D01*
X129083333Y19228571D01*
X129045238Y19380952D01*
X129045238Y19495238D01*
X129083333Y19647619D01*
X129121428Y19723809D01*
X129197619Y19800000D01*
X129311904Y19838095D01*
X129388095Y19838095D01*
X129502380Y19800000D01*
X129540476Y19761904D01*
X127578571Y16498095D02*
X127578571Y17298095D01*
X127883333Y17298095D01*
X127959523Y17260000D01*
X127997619Y17221904D01*
X128035714Y17145714D01*
X128035714Y17031428D01*
X127997619Y16955238D01*
X127959523Y16917142D01*
X127883333Y16879047D01*
X127578571Y16879047D01*
X128340476Y17221904D02*
X128378571Y17260000D01*
X128454761Y17298095D01*
X128645238Y17298095D01*
X128721428Y17260000D01*
X128759523Y17221904D01*
X128797619Y17145714D01*
X128797619Y17069523D01*
X128759523Y16955238D01*
X128302380Y16498095D01*
X128797619Y16498095D01*
X129559523Y16498095D02*
X129102380Y16498095D01*
X129330952Y16498095D02*
X129330952Y17298095D01*
X129254761Y17183809D01*
X129178571Y17107619D01*
X129102380Y17069523D01*
X127578571Y13958095D02*
X127578571Y14758095D01*
X127883333Y14758095D01*
X127959523Y14720000D01*
X127997619Y14681904D01*
X128035714Y14605714D01*
X128035714Y14491428D01*
X127997619Y14415238D01*
X127959523Y14377142D01*
X127883333Y14339047D01*
X127578571Y14339047D01*
X128340476Y14681904D02*
X128378571Y14720000D01*
X128454761Y14758095D01*
X128645238Y14758095D01*
X128721428Y14720000D01*
X128759523Y14681904D01*
X128797619Y14605714D01*
X128797619Y14529523D01*
X128759523Y14415238D01*
X128302380Y13958095D01*
X128797619Y13958095D01*
X129292857Y14758095D02*
X129369047Y14758095D01*
X129445238Y14720000D01*
X129483333Y14681904D01*
X129521428Y14605714D01*
X129559523Y14453333D01*
X129559523Y14262857D01*
X129521428Y14110476D01*
X129483333Y14034285D01*
X129445238Y13996190D01*
X129369047Y13958095D01*
X129292857Y13958095D01*
X129216666Y13996190D01*
X129178571Y14034285D01*
X129140476Y14110476D01*
X129102380Y14262857D01*
X129102380Y14453333D01*
X129140476Y14605714D01*
X129178571Y14681904D01*
X129216666Y14720000D01*
X129292857Y14758095D01*
X127578571Y11418095D02*
X127578571Y12218095D01*
X127883333Y12218095D01*
X127959523Y12180000D01*
X127997619Y12141904D01*
X128035714Y12065714D01*
X128035714Y11951428D01*
X127997619Y11875238D01*
X127959523Y11837142D01*
X127883333Y11799047D01*
X127578571Y11799047D01*
X128797619Y11418095D02*
X128340476Y11418095D01*
X128569047Y11418095D02*
X128569047Y12218095D01*
X128492857Y12103809D01*
X128416666Y12027619D01*
X128340476Y11989523D01*
X129178571Y11418095D02*
X129330952Y11418095D01*
X129407142Y11456190D01*
X129445238Y11494285D01*
X129521428Y11608571D01*
X129559523Y11760952D01*
X129559523Y12065714D01*
X129521428Y12141904D01*
X129483333Y12180000D01*
X129407142Y12218095D01*
X129254761Y12218095D01*
X129178571Y12180000D01*
X129140476Y12141904D01*
X129102380Y12065714D01*
X129102380Y11875238D01*
X129140476Y11799047D01*
X129178571Y11760952D01*
X129254761Y11722857D01*
X129407142Y11722857D01*
X129483333Y11760952D01*
X129521428Y11799047D01*
X129559523Y11875238D01*
X127578571Y8878095D02*
X127578571Y9678095D01*
X127883333Y9678095D01*
X127959523Y9640000D01*
X127997619Y9601904D01*
X128035714Y9525714D01*
X128035714Y9411428D01*
X127997619Y9335238D01*
X127959523Y9297142D01*
X127883333Y9259047D01*
X127578571Y9259047D01*
X128797619Y8878095D02*
X128340476Y8878095D01*
X128569047Y8878095D02*
X128569047Y9678095D01*
X128492857Y9563809D01*
X128416666Y9487619D01*
X128340476Y9449523D01*
X129254761Y9335238D02*
X129178571Y9373333D01*
X129140476Y9411428D01*
X129102380Y9487619D01*
X129102380Y9525714D01*
X129140476Y9601904D01*
X129178571Y9640000D01*
X129254761Y9678095D01*
X129407142Y9678095D01*
X129483333Y9640000D01*
X129521428Y9601904D01*
X129559523Y9525714D01*
X129559523Y9487619D01*
X129521428Y9411428D01*
X129483333Y9373333D01*
X129407142Y9335238D01*
X129254761Y9335238D01*
X129178571Y9297142D01*
X129140476Y9259047D01*
X129102380Y9182857D01*
X129102380Y9030476D01*
X129140476Y8954285D01*
X129178571Y8916190D01*
X129254761Y8878095D01*
X129407142Y8878095D01*
X129483333Y8916190D01*
X129521428Y8954285D01*
X129559523Y9030476D01*
X129559523Y9182857D01*
X129521428Y9259047D01*
X129483333Y9297142D01*
X129407142Y9335238D01*
X127578571Y6338095D02*
X127578571Y7138095D01*
X127883333Y7138095D01*
X127959523Y7100000D01*
X127997619Y7061904D01*
X128035714Y6985714D01*
X128035714Y6871428D01*
X127997619Y6795238D01*
X127959523Y6757142D01*
X127883333Y6719047D01*
X127578571Y6719047D01*
X128797619Y6338095D02*
X128340476Y6338095D01*
X128569047Y6338095D02*
X128569047Y7138095D01*
X128492857Y7023809D01*
X128416666Y6947619D01*
X128340476Y6909523D01*
X129521428Y7138095D02*
X129140476Y7138095D01*
X129102380Y6757142D01*
X129140476Y6795238D01*
X129216666Y6833333D01*
X129407142Y6833333D01*
X129483333Y6795238D01*
X129521428Y6757142D01*
X129559523Y6680952D01*
X129559523Y6490476D01*
X129521428Y6414285D01*
X129483333Y6376190D01*
X129407142Y6338095D01*
X129216666Y6338095D01*
X129140476Y6376190D01*
X129102380Y6414285D01*
X127578571Y3798095D02*
X127578571Y4598095D01*
X127883333Y4598095D01*
X127959523Y4560000D01*
X127997619Y4521904D01*
X128035714Y4445714D01*
X128035714Y4331428D01*
X127997619Y4255238D01*
X127959523Y4217142D01*
X127883333Y4179047D01*
X127578571Y4179047D01*
X128797619Y3798095D02*
X128340476Y3798095D01*
X128569047Y3798095D02*
X128569047Y4598095D01*
X128492857Y4483809D01*
X128416666Y4407619D01*
X128340476Y4369523D01*
X129483333Y4331428D02*
X129483333Y3798095D01*
X129292857Y4636190D02*
X129102380Y4064761D01*
X129597619Y4064761D01*
X127578571Y1258095D02*
X127578571Y2058095D01*
X127883333Y2058095D01*
X127959523Y2020000D01*
X127997619Y1981904D01*
X128035714Y1905714D01*
X128035714Y1791428D01*
X127997619Y1715238D01*
X127959523Y1677142D01*
X127883333Y1639047D01*
X127578571Y1639047D01*
X128797619Y1258095D02*
X128340476Y1258095D01*
X128569047Y1258095D02*
X128569047Y2058095D01*
X128492857Y1943809D01*
X128416666Y1867619D01*
X128340476Y1829523D01*
X129483333Y2058095D02*
X129330952Y2058095D01*
X129254761Y2020000D01*
X129216666Y1981904D01*
X129140476Y1867619D01*
X129102380Y1715238D01*
X129102380Y1410476D01*
X129140476Y1334285D01*
X129178571Y1296190D01*
X129254761Y1258095D01*
X129407142Y1258095D01*
X129483333Y1296190D01*
X129521428Y1334285D01*
X129559523Y1410476D01*
X129559523Y1600952D01*
X129521428Y1677142D01*
X129483333Y1715238D01*
X129407142Y1753333D01*
X129254761Y1753333D01*
X129178571Y1715238D01*
X129140476Y1677142D01*
X129102380Y1600952D01*
X127578571Y-1281904D02*
X127578571Y-481904D01*
X127883333Y-481904D01*
X127959523Y-520000D01*
X127997619Y-558095D01*
X128035714Y-634285D01*
X128035714Y-748571D01*
X127997619Y-824761D01*
X127959523Y-862857D01*
X127883333Y-900952D01*
X127578571Y-900952D01*
X128797619Y-1281904D02*
X128340476Y-1281904D01*
X128569047Y-1281904D02*
X128569047Y-481904D01*
X128492857Y-596190D01*
X128416666Y-672380D01*
X128340476Y-710476D01*
X129292857Y-481904D02*
X129369047Y-481904D01*
X129445238Y-520000D01*
X129483333Y-558095D01*
X129521428Y-634285D01*
X129559523Y-786666D01*
X129559523Y-977142D01*
X129521428Y-1129523D01*
X129483333Y-1205714D01*
X129445238Y-1243809D01*
X129369047Y-1281904D01*
X129292857Y-1281904D01*
X129216666Y-1243809D01*
X129178571Y-1205714D01*
X129140476Y-1129523D01*
X129102380Y-977142D01*
X129102380Y-786666D01*
X129140476Y-634285D01*
X129178571Y-558095D01*
X129216666Y-520000D01*
X129292857Y-481904D01*
X137178571Y26658095D02*
X137178571Y27458095D01*
X137483333Y27458095D01*
X137559523Y27420000D01*
X137597619Y27381904D01*
X137635714Y27305714D01*
X137635714Y27191428D01*
X137597619Y27115238D01*
X137559523Y27077142D01*
X137483333Y27039047D01*
X137178571Y27039047D01*
X138130952Y27458095D02*
X138207142Y27458095D01*
X138283333Y27420000D01*
X138321428Y27381904D01*
X138359523Y27305714D01*
X138397619Y27153333D01*
X138397619Y26962857D01*
X138359523Y26810476D01*
X138321428Y26734285D01*
X138283333Y26696190D01*
X138207142Y26658095D01*
X138130952Y26658095D01*
X138054761Y26696190D01*
X138016666Y26734285D01*
X137978571Y26810476D01*
X137940476Y26962857D01*
X137940476Y27153333D01*
X137978571Y27305714D01*
X138016666Y27381904D01*
X138054761Y27420000D01*
X138130952Y27458095D01*
X139159523Y26658095D02*
X138702380Y26658095D01*
X138930952Y26658095D02*
X138930952Y27458095D01*
X138854761Y27343809D01*
X138778571Y27267619D01*
X138702380Y27229523D01*
X137178571Y24118095D02*
X137178571Y24918095D01*
X137483333Y24918095D01*
X137559523Y24880000D01*
X137597619Y24841904D01*
X137635714Y24765714D01*
X137635714Y24651428D01*
X137597619Y24575238D01*
X137559523Y24537142D01*
X137483333Y24499047D01*
X137178571Y24499047D01*
X138130952Y24918095D02*
X138207142Y24918095D01*
X138283333Y24880000D01*
X138321428Y24841904D01*
X138359523Y24765714D01*
X138397619Y24613333D01*
X138397619Y24422857D01*
X138359523Y24270476D01*
X138321428Y24194285D01*
X138283333Y24156190D01*
X138207142Y24118095D01*
X138130952Y24118095D01*
X138054761Y24156190D01*
X138016666Y24194285D01*
X137978571Y24270476D01*
X137940476Y24422857D01*
X137940476Y24613333D01*
X137978571Y24765714D01*
X138016666Y24841904D01*
X138054761Y24880000D01*
X138130952Y24918095D01*
X138892857Y24918095D02*
X138969047Y24918095D01*
X139045238Y24880000D01*
X139083333Y24841904D01*
X139121428Y24765714D01*
X139159523Y24613333D01*
X139159523Y24422857D01*
X139121428Y24270476D01*
X139083333Y24194285D01*
X139045238Y24156190D01*
X138969047Y24118095D01*
X138892857Y24118095D01*
X138816666Y24156190D01*
X138778571Y24194285D01*
X138740476Y24270476D01*
X138702380Y24422857D01*
X138702380Y24613333D01*
X138740476Y24765714D01*
X138778571Y24841904D01*
X138816666Y24880000D01*
X138892857Y24918095D01*
X137540476Y22340000D02*
X137464285Y22378095D01*
X137350000Y22378095D01*
X137235714Y22340000D01*
X137159523Y22263809D01*
X137121428Y22187619D01*
X137083333Y22035238D01*
X137083333Y21920952D01*
X137121428Y21768571D01*
X137159523Y21692380D01*
X137235714Y21616190D01*
X137350000Y21578095D01*
X137426190Y21578095D01*
X137540476Y21616190D01*
X137578571Y21654285D01*
X137578571Y21920952D01*
X137426190Y21920952D01*
X137921428Y21578095D02*
X137921428Y22378095D01*
X138378571Y21578095D01*
X138378571Y22378095D01*
X138759523Y21578095D02*
X138759523Y22378095D01*
X138950000Y22378095D01*
X139064285Y22340000D01*
X139140476Y22263809D01*
X139178571Y22187619D01*
X139216666Y22035238D01*
X139216666Y21920952D01*
X139178571Y21768571D01*
X139140476Y21692380D01*
X139064285Y21616190D01*
X138950000Y21578095D01*
X138759523Y21578095D01*
X137540476Y19800000D02*
X137464285Y19838095D01*
X137350000Y19838095D01*
X137235714Y19800000D01*
X137159523Y19723809D01*
X137121428Y19647619D01*
X137083333Y19495238D01*
X137083333Y19380952D01*
X137121428Y19228571D01*
X137159523Y19152380D01*
X137235714Y19076190D01*
X137350000Y19038095D01*
X137426190Y19038095D01*
X137540476Y19076190D01*
X137578571Y19114285D01*
X137578571Y19380952D01*
X137426190Y19380952D01*
X137921428Y19038095D02*
X137921428Y19838095D01*
X138378571Y19038095D01*
X138378571Y19838095D01*
X138759523Y19038095D02*
X138759523Y19838095D01*
X138950000Y19838095D01*
X139064285Y19800000D01*
X139140476Y19723809D01*
X139178571Y19647619D01*
X139216666Y19495238D01*
X139216666Y19380952D01*
X139178571Y19228571D01*
X139140476Y19152380D01*
X139064285Y19076190D01*
X138950000Y19038095D01*
X138759523Y19038095D01*
X137178571Y16498095D02*
X137178571Y17298095D01*
X137483333Y17298095D01*
X137559523Y17260000D01*
X137597619Y17221904D01*
X137635714Y17145714D01*
X137635714Y17031428D01*
X137597619Y16955238D01*
X137559523Y16917142D01*
X137483333Y16879047D01*
X137178571Y16879047D01*
X138130952Y17298095D02*
X138207142Y17298095D01*
X138283333Y17260000D01*
X138321428Y17221904D01*
X138359523Y17145714D01*
X138397619Y16993333D01*
X138397619Y16802857D01*
X138359523Y16650476D01*
X138321428Y16574285D01*
X138283333Y16536190D01*
X138207142Y16498095D01*
X138130952Y16498095D01*
X138054761Y16536190D01*
X138016666Y16574285D01*
X137978571Y16650476D01*
X137940476Y16802857D01*
X137940476Y16993333D01*
X137978571Y17145714D01*
X138016666Y17221904D01*
X138054761Y17260000D01*
X138130952Y17298095D01*
X138702380Y17221904D02*
X138740476Y17260000D01*
X138816666Y17298095D01*
X139007142Y17298095D01*
X139083333Y17260000D01*
X139121428Y17221904D01*
X139159523Y17145714D01*
X139159523Y17069523D01*
X139121428Y16955238D01*
X138664285Y16498095D01*
X139159523Y16498095D01*
X137178571Y13958095D02*
X137178571Y14758095D01*
X137483333Y14758095D01*
X137559523Y14720000D01*
X137597619Y14681904D01*
X137635714Y14605714D01*
X137635714Y14491428D01*
X137597619Y14415238D01*
X137559523Y14377142D01*
X137483333Y14339047D01*
X137178571Y14339047D01*
X138130952Y14758095D02*
X138207142Y14758095D01*
X138283333Y14720000D01*
X138321428Y14681904D01*
X138359523Y14605714D01*
X138397619Y14453333D01*
X138397619Y14262857D01*
X138359523Y14110476D01*
X138321428Y14034285D01*
X138283333Y13996190D01*
X138207142Y13958095D01*
X138130952Y13958095D01*
X138054761Y13996190D01*
X138016666Y14034285D01*
X137978571Y14110476D01*
X137940476Y14262857D01*
X137940476Y14453333D01*
X137978571Y14605714D01*
X138016666Y14681904D01*
X138054761Y14720000D01*
X138130952Y14758095D01*
X138664285Y14758095D02*
X139159523Y14758095D01*
X138892857Y14453333D01*
X139007142Y14453333D01*
X139083333Y14415238D01*
X139121428Y14377142D01*
X139159523Y14300952D01*
X139159523Y14110476D01*
X139121428Y14034285D01*
X139083333Y13996190D01*
X139007142Y13958095D01*
X138778571Y13958095D01*
X138702380Y13996190D01*
X138664285Y14034285D01*
X137178571Y11418095D02*
X137178571Y12218095D01*
X137483333Y12218095D01*
X137559523Y12180000D01*
X137597619Y12141904D01*
X137635714Y12065714D01*
X137635714Y11951428D01*
X137597619Y11875238D01*
X137559523Y11837142D01*
X137483333Y11799047D01*
X137178571Y11799047D01*
X138130952Y12218095D02*
X138207142Y12218095D01*
X138283333Y12180000D01*
X138321428Y12141904D01*
X138359523Y12065714D01*
X138397619Y11913333D01*
X138397619Y11722857D01*
X138359523Y11570476D01*
X138321428Y11494285D01*
X138283333Y11456190D01*
X138207142Y11418095D01*
X138130952Y11418095D01*
X138054761Y11456190D01*
X138016666Y11494285D01*
X137978571Y11570476D01*
X137940476Y11722857D01*
X137940476Y11913333D01*
X137978571Y12065714D01*
X138016666Y12141904D01*
X138054761Y12180000D01*
X138130952Y12218095D01*
X139083333Y11951428D02*
X139083333Y11418095D01*
X138892857Y12256190D02*
X138702380Y11684761D01*
X139197619Y11684761D01*
X137178571Y8878095D02*
X137178571Y9678095D01*
X137483333Y9678095D01*
X137559523Y9640000D01*
X137597619Y9601904D01*
X137635714Y9525714D01*
X137635714Y9411428D01*
X137597619Y9335238D01*
X137559523Y9297142D01*
X137483333Y9259047D01*
X137178571Y9259047D01*
X138130952Y9678095D02*
X138207142Y9678095D01*
X138283333Y9640000D01*
X138321428Y9601904D01*
X138359523Y9525714D01*
X138397619Y9373333D01*
X138397619Y9182857D01*
X138359523Y9030476D01*
X138321428Y8954285D01*
X138283333Y8916190D01*
X138207142Y8878095D01*
X138130952Y8878095D01*
X138054761Y8916190D01*
X138016666Y8954285D01*
X137978571Y9030476D01*
X137940476Y9182857D01*
X137940476Y9373333D01*
X137978571Y9525714D01*
X138016666Y9601904D01*
X138054761Y9640000D01*
X138130952Y9678095D01*
X139121428Y9678095D02*
X138740476Y9678095D01*
X138702380Y9297142D01*
X138740476Y9335238D01*
X138816666Y9373333D01*
X139007142Y9373333D01*
X139083333Y9335238D01*
X139121428Y9297142D01*
X139159523Y9220952D01*
X139159523Y9030476D01*
X139121428Y8954285D01*
X139083333Y8916190D01*
X139007142Y8878095D01*
X138816666Y8878095D01*
X138740476Y8916190D01*
X138702380Y8954285D01*
X137178571Y6338095D02*
X137178571Y7138095D01*
X137483333Y7138095D01*
X137559523Y7100000D01*
X137597619Y7061904D01*
X137635714Y6985714D01*
X137635714Y6871428D01*
X137597619Y6795238D01*
X137559523Y6757142D01*
X137483333Y6719047D01*
X137178571Y6719047D01*
X138130952Y7138095D02*
X138207142Y7138095D01*
X138283333Y7100000D01*
X138321428Y7061904D01*
X138359523Y6985714D01*
X138397619Y6833333D01*
X138397619Y6642857D01*
X138359523Y6490476D01*
X138321428Y6414285D01*
X138283333Y6376190D01*
X138207142Y6338095D01*
X138130952Y6338095D01*
X138054761Y6376190D01*
X138016666Y6414285D01*
X137978571Y6490476D01*
X137940476Y6642857D01*
X137940476Y6833333D01*
X137978571Y6985714D01*
X138016666Y7061904D01*
X138054761Y7100000D01*
X138130952Y7138095D01*
X139083333Y7138095D02*
X138930952Y7138095D01*
X138854761Y7100000D01*
X138816666Y7061904D01*
X138740476Y6947619D01*
X138702380Y6795238D01*
X138702380Y6490476D01*
X138740476Y6414285D01*
X138778571Y6376190D01*
X138854761Y6338095D01*
X139007142Y6338095D01*
X139083333Y6376190D01*
X139121428Y6414285D01*
X139159523Y6490476D01*
X139159523Y6680952D01*
X139121428Y6757142D01*
X139083333Y6795238D01*
X139007142Y6833333D01*
X138854761Y6833333D01*
X138778571Y6795238D01*
X138740476Y6757142D01*
X138702380Y6680952D01*
X137178571Y3798095D02*
X137178571Y4598095D01*
X137483333Y4598095D01*
X137559523Y4560000D01*
X137597619Y4521904D01*
X137635714Y4445714D01*
X137635714Y4331428D01*
X137597619Y4255238D01*
X137559523Y4217142D01*
X137483333Y4179047D01*
X137178571Y4179047D01*
X138130952Y4598095D02*
X138207142Y4598095D01*
X138283333Y4560000D01*
X138321428Y4521904D01*
X138359523Y4445714D01*
X138397619Y4293333D01*
X138397619Y4102857D01*
X138359523Y3950476D01*
X138321428Y3874285D01*
X138283333Y3836190D01*
X138207142Y3798095D01*
X138130952Y3798095D01*
X138054761Y3836190D01*
X138016666Y3874285D01*
X137978571Y3950476D01*
X137940476Y4102857D01*
X137940476Y4293333D01*
X137978571Y4445714D01*
X138016666Y4521904D01*
X138054761Y4560000D01*
X138130952Y4598095D01*
X138664285Y4598095D02*
X139197619Y4598095D01*
X138854761Y3798095D01*
X137178571Y1258095D02*
X137178571Y2058095D01*
X137483333Y2058095D01*
X137559523Y2020000D01*
X137597619Y1981904D01*
X137635714Y1905714D01*
X137635714Y1791428D01*
X137597619Y1715238D01*
X137559523Y1677142D01*
X137483333Y1639047D01*
X137178571Y1639047D01*
X138130952Y2058095D02*
X138207142Y2058095D01*
X138283333Y2020000D01*
X138321428Y1981904D01*
X138359523Y1905714D01*
X138397619Y1753333D01*
X138397619Y1562857D01*
X138359523Y1410476D01*
X138321428Y1334285D01*
X138283333Y1296190D01*
X138207142Y1258095D01*
X138130952Y1258095D01*
X138054761Y1296190D01*
X138016666Y1334285D01*
X137978571Y1410476D01*
X137940476Y1562857D01*
X137940476Y1753333D01*
X137978571Y1905714D01*
X138016666Y1981904D01*
X138054761Y2020000D01*
X138130952Y2058095D01*
X138854761Y1715238D02*
X138778571Y1753333D01*
X138740476Y1791428D01*
X138702380Y1867619D01*
X138702380Y1905714D01*
X138740476Y1981904D01*
X138778571Y2020000D01*
X138854761Y2058095D01*
X139007142Y2058095D01*
X139083333Y2020000D01*
X139121428Y1981904D01*
X139159523Y1905714D01*
X139159523Y1867619D01*
X139121428Y1791428D01*
X139083333Y1753333D01*
X139007142Y1715238D01*
X138854761Y1715238D01*
X138778571Y1677142D01*
X138740476Y1639047D01*
X138702380Y1562857D01*
X138702380Y1410476D01*
X138740476Y1334285D01*
X138778571Y1296190D01*
X138854761Y1258095D01*
X139007142Y1258095D01*
X139083333Y1296190D01*
X139121428Y1334285D01*
X139159523Y1410476D01*
X139159523Y1562857D01*
X139121428Y1639047D01*
X139083333Y1677142D01*
X139007142Y1715238D01*
X137178571Y-1281904D02*
X137178571Y-481904D01*
X137483333Y-481904D01*
X137559523Y-520000D01*
X137597619Y-558095D01*
X137635714Y-634285D01*
X137635714Y-748571D01*
X137597619Y-824761D01*
X137559523Y-862857D01*
X137483333Y-900952D01*
X137178571Y-900952D01*
X138130952Y-481904D02*
X138207142Y-481904D01*
X138283333Y-520000D01*
X138321428Y-558095D01*
X138359523Y-634285D01*
X138397619Y-786666D01*
X138397619Y-977142D01*
X138359523Y-1129523D01*
X138321428Y-1205714D01*
X138283333Y-1243809D01*
X138207142Y-1281904D01*
X138130952Y-1281904D01*
X138054761Y-1243809D01*
X138016666Y-1205714D01*
X137978571Y-1129523D01*
X137940476Y-977142D01*
X137940476Y-786666D01*
X137978571Y-634285D01*
X138016666Y-558095D01*
X138054761Y-520000D01*
X138130952Y-481904D01*
X138778571Y-1281904D02*
X138930952Y-1281904D01*
X139007142Y-1243809D01*
X139045238Y-1205714D01*
X139121428Y-1091428D01*
X139159523Y-939047D01*
X139159523Y-634285D01*
X139121428Y-558095D01*
X139083333Y-520000D01*
X139007142Y-481904D01*
X138854761Y-481904D01*
X138778571Y-520000D01*
X138740476Y-558095D01*
X138702380Y-634285D01*
X138702380Y-824761D01*
X138740476Y-900952D01*
X138778571Y-939047D01*
X138854761Y-977142D01*
X139007142Y-977142D01*
X139083333Y-939047D01*
X139121428Y-900952D01*
X139159523Y-824761D01*
%TO.C,*%
%TO.C,G\u002A\u002A\u002A*%
G36*
X109013817Y2539750D02*
G01*
X109139155Y2537906D01*
X109220363Y2528673D01*
X109276781Y2506507D01*
X109327754Y2465859D01*
X109351107Y2443028D01*
X109412952Y2371551D01*
X109434894Y2307912D01*
X109429005Y2228715D01*
X109400867Y2137048D01*
X109356882Y2068029D01*
X109350777Y2062510D01*
X109311627Y2024678D01*
X109319412Y1995416D01*
X109361362Y1961103D01*
X109429736Y1873672D01*
X109455477Y1760915D01*
X109440630Y1642627D01*
X109387241Y1538602D01*
X109311134Y1475161D01*
X109220299Y1447432D01*
X109087396Y1431312D01*
X108997076Y1428500D01*
X108773250Y1428500D01*
X108773250Y1555500D01*
X108932000Y1555500D01*
X109051935Y1555500D01*
X109151882Y1568632D01*
X109235918Y1600672D01*
X109242435Y1604926D01*
X109299666Y1679324D01*
X109309499Y1774308D01*
X109270396Y1866545D01*
X109260454Y1878438D01*
X109179961Y1924194D01*
X109069954Y1936500D01*
X108932000Y1936500D01*
X108932000Y1555500D01*
X108773250Y1555500D01*
X108773250Y2063500D01*
X108932000Y2063500D01*
X109036060Y2063500D01*
X109132912Y2078773D01*
X109210685Y2112926D01*
X109265432Y2181101D01*
X109281768Y2266144D01*
X109258856Y2343638D01*
X109219837Y2379883D01*
X109145978Y2402567D01*
X109050720Y2412713D01*
X109045212Y2412750D01*
X108932000Y2412750D01*
X108932000Y2063500D01*
X108773250Y2063500D01*
X108773250Y2539750D01*
X109013817Y2539750D01*
G37*
G36*
X110379341Y2537526D02*
G01*
X110394331Y2524173D01*
X110390247Y2489673D01*
X110364695Y2424004D01*
X110315282Y2317149D01*
X110273708Y2230188D01*
X110204122Y2079794D01*
X110159054Y1964422D01*
X110132541Y1863386D01*
X110118623Y1756000D01*
X110113580Y1674563D01*
X110106594Y1550920D01*
X110097009Y1477621D01*
X110080102Y1441546D01*
X110051146Y1429573D01*
X110024957Y1428500D01*
X109983619Y1432415D01*
X109960565Y1453695D01*
X109950478Y1506648D01*
X109948038Y1605578D01*
X109948000Y1635510D01*
X109944362Y1742892D01*
X109929512Y1834418D01*
X109897546Y1930702D01*
X109842559Y2052357D01*
X109809320Y2119697D01*
X109729063Y2282393D01*
X109676278Y2397144D01*
X109648678Y2472102D01*
X109643977Y2515419D01*
X109659889Y2535247D01*
X109691506Y2539750D01*
X109731792Y2525151D01*
X109777221Y2475525D01*
X109834386Y2382134D01*
X109889078Y2277813D01*
X110021364Y2015875D01*
X110147269Y2277813D01*
X110211177Y2405336D01*
X110259038Y2484495D01*
X110298823Y2525710D01*
X110338503Y2539398D01*
X110347672Y2539750D01*
X110379341Y2537526D01*
G37*
G36*
X112017597Y2538954D02*
G01*
X112114053Y2535140D01*
X112169469Y2526170D01*
X112195070Y2509904D01*
X112202084Y2484205D01*
X112202250Y2476250D01*
X112197227Y2445375D01*
X112173883Y2426515D01*
X112119801Y2416751D01*
X112022564Y2413159D01*
X111932375Y2412750D01*
X111662500Y2412750D01*
X111662500Y2063500D01*
X111900625Y2063500D01*
X112021745Y2062511D01*
X112092743Y2056571D01*
X112126994Y2041222D01*
X112137874Y2012005D01*
X112138750Y1984125D01*
X112135782Y1943752D01*
X112117962Y1920086D01*
X112071914Y1908669D01*
X111984262Y1905042D01*
X111900625Y1904750D01*
X111662500Y1904750D01*
X111662500Y1666625D01*
X111661000Y1544875D01*
X111654161Y1473439D01*
X111638474Y1439159D01*
X111610430Y1428874D01*
X111599000Y1428500D01*
X111576150Y1431267D01*
X111559558Y1445393D01*
X111548224Y1479623D01*
X111541151Y1542696D01*
X111537339Y1643355D01*
X111535788Y1790343D01*
X111535500Y1984125D01*
X111535500Y2539750D01*
X111868875Y2539750D01*
X112017597Y2538954D01*
G37*
G36*
X112676729Y2539750D02*
G01*
X112809371Y2537364D01*
X112897111Y2527435D01*
X112958459Y2505809D01*
X113011923Y2468329D01*
X113018042Y2463125D01*
X113072799Y2406071D01*
X113099289Y2341765D01*
X113106999Y2244558D01*
X113107125Y2222251D01*
X113101649Y2116356D01*
X113079034Y2048033D01*
X113030000Y1991839D01*
X113019812Y1982899D01*
X112961896Y1924427D01*
X112933180Y1878466D01*
X112932500Y1873618D01*
X112945980Y1829438D01*
X112981226Y1747296D01*
X113027750Y1650751D01*
X113076094Y1552644D01*
X113110375Y1478613D01*
X113123000Y1445281D01*
X113095786Y1432597D01*
X113044586Y1428500D01*
X113001276Y1436731D01*
X112962634Y1468954D01*
X112919723Y1536463D01*
X112863604Y1650554D01*
X112856152Y1666625D01*
X112798466Y1786010D01*
X112755094Y1857833D01*
X112716847Y1893524D01*
X112674536Y1904512D01*
X112664690Y1904750D01*
X112623273Y1902014D01*
X112598995Y1884883D01*
X112587282Y1839975D01*
X112583556Y1753910D01*
X112583250Y1666625D01*
X112582260Y1545505D01*
X112576320Y1474507D01*
X112560971Y1440256D01*
X112531754Y1429376D01*
X112503875Y1428500D01*
X112424500Y1428500D01*
X112424500Y2031750D01*
X112583250Y2031750D01*
X112723857Y2031750D01*
X112836104Y2044378D01*
X112910830Y2078340D01*
X112914357Y2081643D01*
X112957216Y2164563D01*
X112956561Y2264781D01*
X112912670Y2353610D01*
X112911704Y2354688D01*
X112831211Y2400444D01*
X112721204Y2412750D01*
X112583250Y2412750D01*
X112583250Y2031750D01*
X112424500Y2031750D01*
X112424500Y2539750D01*
X112676729Y2539750D01*
G37*
G36*
X113569076Y2539750D02*
G01*
X113749897Y2528190D01*
X113879748Y2491028D01*
X113967270Y2424548D01*
X114012060Y2349104D01*
X114032662Y2228773D01*
X114008678Y2102809D01*
X113947147Y1996097D01*
X113900627Y1955133D01*
X113821454Y1903257D01*
X113932602Y1682546D01*
X113985178Y1576147D01*
X114024330Y1493114D01*
X114043063Y1448384D01*
X114043750Y1445168D01*
X114016456Y1432729D01*
X113962568Y1428500D01*
X113918476Y1435883D01*
X113880412Y1465677D01*
X113839241Y1529349D01*
X113785827Y1638367D01*
X113772870Y1666625D01*
X113715770Y1786272D01*
X113672704Y1858193D01*
X113634616Y1893817D01*
X113592449Y1904573D01*
X113584176Y1904750D01*
X113543398Y1901875D01*
X113519495Y1884328D01*
X113507963Y1838733D01*
X113504297Y1751710D01*
X113504000Y1666625D01*
X113503010Y1545505D01*
X113497070Y1474507D01*
X113481721Y1440256D01*
X113452504Y1429376D01*
X113424625Y1428500D01*
X113345250Y1428500D01*
X113345250Y2031750D01*
X113504000Y2031750D01*
X113636437Y2031750D01*
X113746375Y2045804D01*
X113824960Y2082558D01*
X113826937Y2084296D01*
X113876110Y2167144D01*
X113877602Y2266516D01*
X113832454Y2354688D01*
X113751961Y2400444D01*
X113641954Y2412750D01*
X113504000Y2412750D01*
X113504000Y2031750D01*
X113345250Y2031750D01*
X113345250Y2539750D01*
X113569076Y2539750D01*
G37*
G36*
X114748097Y2538954D02*
G01*
X114844553Y2535140D01*
X114899969Y2526170D01*
X114925570Y2509904D01*
X114932584Y2484205D01*
X114932750Y2476250D01*
X114927447Y2444612D01*
X114903023Y2425650D01*
X114846704Y2416172D01*
X114745719Y2412984D01*
X114678750Y2412750D01*
X114424750Y2412750D01*
X114424750Y2063500D01*
X114647000Y2063500D01*
X114763799Y2061787D01*
X114830711Y2054062D01*
X114861315Y2036444D01*
X114869188Y2005055D01*
X114869250Y2000000D01*
X114863253Y1966629D01*
X114836213Y1947511D01*
X114774552Y1938767D01*
X114664691Y1936518D01*
X114647000Y1936500D01*
X114424750Y1936500D01*
X114424750Y1555500D01*
X114678750Y1555500D01*
X114805303Y1554175D01*
X114881150Y1548069D01*
X114919063Y1533989D01*
X114931815Y1508743D01*
X114932750Y1492000D01*
X114928570Y1463672D01*
X114908545Y1445300D01*
X114861449Y1434744D01*
X114776056Y1429868D01*
X114641138Y1428532D01*
X114599375Y1428500D01*
X114266000Y1428500D01*
X114266000Y2539750D01*
X114599375Y2539750D01*
X114748097Y2538954D01*
G37*
G36*
X115314922Y2537360D02*
G01*
X115344557Y2524146D01*
X115372437Y2491042D01*
X115403673Y2428983D01*
X115443374Y2328905D01*
X115496648Y2181741D01*
X115524485Y2103188D01*
X115678875Y1666625D01*
X115687708Y2103188D01*
X115691779Y2277407D01*
X115696794Y2397949D01*
X115704360Y2474635D01*
X115716083Y2517283D01*
X115733572Y2535715D01*
X115758432Y2539749D01*
X115759145Y2539750D01*
X115781644Y2536814D01*
X115797992Y2522190D01*
X115809169Y2487160D01*
X115816155Y2423003D01*
X115819927Y2320999D01*
X115821466Y2172428D01*
X115821750Y1982114D01*
X115821750Y1424477D01*
X115722268Y1434426D01*
X115682249Y1440543D01*
X115650547Y1456012D01*
X115621775Y1490301D01*
X115590540Y1552880D01*
X115551455Y1653219D01*
X115499127Y1800788D01*
X115476205Y1866735D01*
X115329625Y2289095D01*
X115320791Y1858798D01*
X115316684Y1686027D01*
X115311598Y1566863D01*
X115303892Y1491418D01*
X115291923Y1449802D01*
X115274049Y1432126D01*
X115249354Y1428500D01*
X115226820Y1431445D01*
X115210458Y1446102D01*
X115199281Y1481208D01*
X115192306Y1545498D01*
X115188549Y1647707D01*
X115187025Y1796572D01*
X115186750Y1984125D01*
X115186750Y2539750D01*
X115278423Y2539750D01*
X115314922Y2537360D01*
G37*
G36*
X116556295Y2538903D02*
G01*
X116653452Y2535001D01*
X116709417Y2526005D01*
X116735343Y2509874D01*
X116742378Y2484568D01*
X116742500Y2478333D01*
X116726871Y2430658D01*
X116683792Y2339866D01*
X116618973Y2216995D01*
X116538126Y2073081D01*
X116491973Y1994146D01*
X116241446Y1571375D01*
X116491973Y1562154D01*
X116617870Y1555959D01*
X116693008Y1546400D01*
X116730127Y1529844D01*
X116741968Y1502659D01*
X116742500Y1490716D01*
X116738032Y1462943D01*
X116717161Y1444928D01*
X116668682Y1434580D01*
X116581391Y1429809D01*
X116444084Y1428523D01*
X116409125Y1428500D01*
X116260548Y1429228D01*
X116164207Y1432897D01*
X116108842Y1441736D01*
X116083191Y1457975D01*
X116075994Y1483843D01*
X116075750Y1494495D01*
X116091384Y1543790D01*
X116134484Y1636088D01*
X116199345Y1760247D01*
X116280262Y1905124D01*
X116327019Y1985334D01*
X116578289Y2410178D01*
X116335301Y2419402D01*
X116208637Y2426544D01*
X116132598Y2438299D01*
X116094323Y2457952D01*
X116081703Y2484188D01*
X116082684Y2508971D01*
X116104058Y2525103D01*
X116156449Y2534400D01*
X116250480Y2538676D01*
X116396775Y2539748D01*
X116406796Y2539750D01*
X116556295Y2538903D01*
G37*
G36*
X117709407Y2533796D02*
G01*
X117726750Y2523299D01*
X117713342Y2489981D01*
X117676978Y2412181D01*
X117623448Y2302036D01*
X117568000Y2190500D01*
X117497063Y2045755D01*
X117451018Y1938884D01*
X117424570Y1851896D01*
X117412421Y1766803D01*
X117409274Y1665612D01*
X117409250Y1651327D01*
X117408089Y1535029D01*
X117401328Y1468408D01*
X117384041Y1437644D01*
X117351308Y1428919D01*
X117329875Y1428500D01*
X117287811Y1431958D01*
X117264013Y1451718D01*
X117253235Y1501868D01*
X117250230Y1596490D01*
X117250043Y1642813D01*
X117246979Y1744236D01*
X117234862Y1831419D01*
X117208579Y1921874D01*
X117163015Y2033110D01*
X117093054Y2182638D01*
X117091293Y2186301D01*
X117028789Y2317272D01*
X116977927Y2425737D01*
X116944192Y2499866D01*
X116933000Y2527613D01*
X116960053Y2537038D01*
X117005783Y2539750D01*
X117044726Y2530690D01*
X117081962Y2496613D01*
X117124894Y2427174D01*
X117180924Y2312031D01*
X117202174Y2265296D01*
X117325782Y1990842D01*
X117451364Y2265296D01*
X117513528Y2396138D01*
X117559936Y2478365D01*
X117598204Y2522402D01*
X117635948Y2538677D01*
X117651847Y2539750D01*
X117709407Y2533796D01*
G37*
G36*
X56568251Y35555790D02*
G01*
X56655339Y35514731D01*
X56739345Y35441159D01*
X56801431Y35355224D01*
X56823000Y35283314D01*
X56803307Y35232414D01*
X56756466Y35222885D01*
X56700836Y35251812D01*
X56657824Y35309563D01*
X56603439Y35378909D01*
X56515500Y35406537D01*
X56511142Y35406979D01*
X56432956Y35409151D01*
X56378668Y35391945D01*
X56344007Y35346207D01*
X56324699Y35262777D01*
X56316473Y35132500D01*
X56315000Y34986588D01*
X56317162Y34813035D01*
X56326280Y34693167D01*
X56346301Y34617244D01*
X56381171Y34575522D01*
X56434836Y34558258D01*
X56489625Y34555500D01*
X56588559Y34572071D01*
X56644096Y34627533D01*
X56663889Y34730512D01*
X56664250Y34752350D01*
X56660351Y34830977D01*
X56637137Y34864895D01*
X56577330Y34872864D01*
X56553125Y34873000D01*
X56476535Y34880104D01*
X56445632Y34907834D01*
X56442000Y34936500D01*
X56448950Y34971967D01*
X56479484Y34991131D01*
X56548124Y34998833D01*
X56632500Y35000000D01*
X56823000Y35000000D01*
X56823000Y34810001D01*
X56818510Y34693946D01*
X56799982Y34616226D01*
X56759830Y34552004D01*
X56735687Y34524173D01*
X56625079Y34441962D01*
X56497652Y34408771D01*
X56394375Y34422592D01*
X56300621Y34462799D01*
X56234710Y34515773D01*
X56192001Y34592445D01*
X56167854Y34703744D01*
X56157631Y34860602D01*
X56156250Y34983615D01*
X56160551Y35174812D01*
X56174023Y35310799D01*
X56197517Y35399322D01*
X56203322Y35411683D01*
X56278480Y35494452D01*
X56391089Y35547718D01*
X56518528Y35562548D01*
X56568251Y35555790D01*
G37*
G36*
X57235750Y35085726D02*
G01*
X57236966Y34890859D01*
X57242653Y34750564D01*
X57255865Y34655926D01*
X57279658Y34598033D01*
X57317088Y34567969D01*
X57371210Y34556823D01*
X57417510Y34555500D01*
X57477635Y34562440D01*
X57521650Y34588757D01*
X57551964Y34642704D01*
X57570988Y34732528D01*
X57581130Y34866482D01*
X57584799Y35052815D01*
X57585000Y35129067D01*
X57585543Y35297080D01*
X57588219Y35411739D01*
X57594597Y35483190D01*
X57606244Y35521576D01*
X57624730Y35537043D01*
X57648500Y35539750D01*
X57673210Y35536556D01*
X57690516Y35520592D01*
X57701731Y35482288D01*
X57708170Y35412074D01*
X57711146Y35300379D01*
X57711974Y35137634D01*
X57712000Y35077288D01*
X57709622Y34892018D01*
X57702966Y34735931D01*
X57692742Y34619957D01*
X57679663Y34555028D01*
X57677694Y34550725D01*
X57624109Y34495892D01*
X57536347Y34442753D01*
X57442377Y34406033D01*
X57387582Y34397993D01*
X57332086Y34410842D01*
X57252373Y34440374D01*
X57246187Y34443034D01*
X57166381Y34491681D01*
X57112340Y34548858D01*
X57111249Y34550829D01*
X57097892Y34607790D01*
X57087262Y34717212D01*
X57080076Y34868088D01*
X57077050Y35049412D01*
X57077000Y35077288D01*
X57077000Y35539750D01*
X57235750Y35539750D01*
X57235750Y35085726D01*
G37*
G36*
X59349974Y35545352D02*
G01*
X59419535Y35519270D01*
X59478079Y35465139D01*
X59478956Y35464121D01*
X59529527Y35388851D01*
X59553249Y35321092D01*
X59553500Y35315730D01*
X59533791Y35265087D01*
X59487566Y35255910D01*
X59434173Y35285752D01*
X59399698Y35335194D01*
X59367609Y35386738D01*
X59319958Y35407486D01*
X59233805Y35407009D01*
X59228504Y35406631D01*
X59138829Y35393631D01*
X59090390Y35363020D01*
X59063597Y35309064D01*
X59054611Y35227256D01*
X59094744Y35159759D01*
X59189296Y35100830D01*
X59292549Y35060983D01*
X59412734Y34999487D01*
X59510899Y34910243D01*
X59572196Y34809359D01*
X59585250Y34743372D01*
X59557157Y34611117D01*
X59480616Y34506772D01*
X59367231Y34437614D01*
X59228607Y34410918D01*
X59086610Y34430755D01*
X58984278Y34485454D01*
X58912036Y34569554D01*
X58886750Y34657815D01*
X58906331Y34704982D01*
X58954955Y34708698D01*
X59017440Y34671082D01*
X59051172Y34634875D01*
X59121456Y34574981D01*
X59218296Y34555671D01*
X59231954Y34555500D01*
X59344082Y34571308D01*
X59406732Y34622347D01*
X59426496Y34714048D01*
X59426500Y34715680D01*
X59409215Y34793865D01*
X59351399Y34858595D01*
X59244106Y34917859D01*
X59164509Y34949641D01*
X59032133Y35015376D01*
X58953912Y35100490D01*
X58920982Y35216579D01*
X58918500Y35271406D01*
X58942433Y35404523D01*
X59013917Y35495685D01*
X59132476Y35544480D01*
X59243434Y35553204D01*
X59349974Y35545352D01*
G37*
G36*
X52078006Y35538879D02*
G01*
X52170513Y35534732D01*
X52222514Y35525011D01*
X52245503Y35507417D01*
X52250974Y35479651D01*
X52251000Y35476250D01*
X52245697Y35444612D01*
X52221273Y35425650D01*
X52164954Y35416172D01*
X52063969Y35412984D01*
X51997000Y35412750D01*
X51743000Y35412750D01*
X51743000Y35063500D01*
X51965250Y35063500D01*
X52082049Y35061787D01*
X52148961Y35054062D01*
X52179565Y35036444D01*
X52187438Y35005055D01*
X52187500Y35000000D01*
X52181503Y34966629D01*
X52154463Y34947511D01*
X52092802Y34938767D01*
X51982941Y34936518D01*
X51965250Y34936500D01*
X51743000Y34936500D01*
X51743000Y34555500D01*
X51997000Y34555500D01*
X52123553Y34554175D01*
X52199400Y34548069D01*
X52237313Y34533989D01*
X52250065Y34508743D01*
X52251000Y34492000D01*
X52246642Y34463099D01*
X52225907Y34444598D01*
X52177301Y34434198D01*
X52089331Y34429600D01*
X51950504Y34428506D01*
X51933500Y34428500D01*
X51616000Y34428500D01*
X51616000Y35539750D01*
X51933500Y35539750D01*
X52078006Y35538879D01*
G37*
G36*
X52578988Y35533048D02*
G01*
X52619659Y35504932D01*
X52662573Y35443391D01*
X52718628Y35336413D01*
X52724004Y35325536D01*
X52829638Y35111321D01*
X52937632Y35325536D01*
X52997499Y35437803D01*
X53043202Y35503140D01*
X53085058Y35533206D01*
X53127134Y35539750D01*
X53208642Y35539750D01*
X52913410Y34998140D01*
X53230400Y34428500D01*
X53145512Y34428768D01*
X53096126Y34437240D01*
X53052788Y34470179D01*
X53004371Y34539398D01*
X52951148Y34635143D01*
X52895800Y34734927D01*
X52850725Y34808127D01*
X52824638Y34840725D01*
X52823025Y34841250D01*
X52800967Y34814938D01*
X52760116Y34745553D01*
X52708834Y34647426D01*
X52702610Y34634875D01*
X52644586Y34524491D01*
X52599590Y34461273D01*
X52557207Y34433374D01*
X52521171Y34428500D01*
X52461301Y34434436D01*
X52441500Y34445855D01*
X52456350Y34479282D01*
X52496099Y34554136D01*
X52553545Y34657054D01*
X52584375Y34710912D01*
X52659539Y34844959D01*
X52704167Y34938486D01*
X52721581Y35004693D01*
X52715105Y35056779D01*
X52688064Y35107943D01*
X52685374Y35111998D01*
X52648144Y35172354D01*
X52593390Y35266401D01*
X52542228Y35357188D01*
X52440957Y35539750D01*
X52529664Y35539750D01*
X52578988Y35533048D01*
G37*
G36*
X53904080Y35539127D02*
G01*
X54011937Y35536089D01*
X54077344Y35528882D01*
X54110822Y35515752D01*
X54122896Y35494945D01*
X54124250Y35476250D01*
X54115891Y35438163D01*
X54080415Y35419167D01*
X54002218Y35413022D01*
X53965500Y35412750D01*
X53806750Y35412750D01*
X53806750Y34920625D01*
X53806357Y34734105D01*
X53804381Y34601801D01*
X53799625Y34514433D01*
X53790890Y34462717D01*
X53776979Y34437374D01*
X53756694Y34429120D01*
X53743250Y34428500D01*
X53719182Y34431542D01*
X53702111Y34446853D01*
X53690838Y34483716D01*
X53684165Y34551412D01*
X53680894Y34659224D01*
X53679829Y34816433D01*
X53679750Y34920625D01*
X53679750Y35412750D01*
X53521000Y35412750D01*
X53425781Y35416094D01*
X53378291Y35430284D01*
X53362929Y35461563D01*
X53362250Y35476250D01*
X53365988Y35503056D01*
X53384217Y35521032D01*
X53427461Y35531933D01*
X53506242Y35537513D01*
X53631083Y35539525D01*
X53743250Y35539750D01*
X53904080Y35539127D01*
G37*
G36*
X54788313Y35538792D02*
G01*
X54876790Y35534262D01*
X54925335Y35523681D01*
X54945726Y35504570D01*
X54949750Y35476250D01*
X54937319Y35432485D01*
X54888791Y35414826D01*
X54838625Y35412750D01*
X54727500Y35412750D01*
X54727500Y34555500D01*
X54838625Y34555500D01*
X54915214Y34548397D01*
X54946117Y34520667D01*
X54949750Y34492000D01*
X54945195Y34462487D01*
X54923678Y34443860D01*
X54873421Y34433640D01*
X54782643Y34429347D01*
X54648125Y34428500D01*
X54507936Y34429459D01*
X54419459Y34433989D01*
X54370914Y34444570D01*
X54350523Y34463681D01*
X54346500Y34492000D01*
X54358930Y34535766D01*
X54407458Y34553425D01*
X54457625Y34555500D01*
X54568750Y34555500D01*
X54568750Y35412750D01*
X54457625Y35412750D01*
X54381035Y35419854D01*
X54350132Y35447584D01*
X54346500Y35476250D01*
X54351054Y35505764D01*
X54372571Y35524391D01*
X54422828Y35534611D01*
X54513606Y35538904D01*
X54648125Y35539750D01*
X54788313Y35538792D01*
G37*
G36*
X55902250Y34424477D02*
G01*
X55799221Y34434426D01*
X55757536Y34440384D01*
X55724778Y34455321D01*
X55695271Y34488756D01*
X55663339Y34550205D01*
X55623305Y34649184D01*
X55569493Y34795210D01*
X55547101Y34857125D01*
X55398010Y35269875D01*
X55396130Y34849188D01*
X55394250Y34428500D01*
X55235500Y34428500D01*
X55235500Y35539750D01*
X55338687Y35539642D01*
X55441875Y35539533D01*
X55590626Y35118954D01*
X55739378Y34698375D01*
X55741439Y35119063D01*
X55743500Y35539750D01*
X55902250Y35539750D01*
X55902250Y34424477D01*
G37*
G36*
X58439563Y35538792D02*
G01*
X58528040Y35534262D01*
X58576585Y35523681D01*
X58596976Y35504570D01*
X58601000Y35476250D01*
X58588569Y35432485D01*
X58540041Y35414826D01*
X58489875Y35412750D01*
X58378750Y35412750D01*
X58378750Y34555500D01*
X58489875Y34555500D01*
X58566464Y34548397D01*
X58597367Y34520667D01*
X58601000Y34492000D01*
X58596445Y34462487D01*
X58574928Y34443860D01*
X58524671Y34433640D01*
X58433893Y34429347D01*
X58299375Y34428500D01*
X58159186Y34429459D01*
X58070709Y34433989D01*
X58022164Y34444570D01*
X58001773Y34463681D01*
X57997750Y34492000D01*
X58010180Y34535766D01*
X58058708Y34553425D01*
X58108875Y34555500D01*
X58220000Y34555500D01*
X58220000Y35412750D01*
X58108875Y35412750D01*
X58032285Y35419854D01*
X58001382Y35447584D01*
X57997750Y35476250D01*
X58002304Y35505764D01*
X58023821Y35524391D01*
X58074078Y35534611D01*
X58164856Y35538904D01*
X58299375Y35539750D01*
X58439563Y35538792D01*
G37*
G36*
X59927248Y35536783D02*
G01*
X59950914Y35518963D01*
X59962331Y35472915D01*
X59965958Y35385263D01*
X59966250Y35301625D01*
X59966250Y35063500D01*
X60315500Y35063500D01*
X60315500Y35301625D01*
X60316489Y35422746D01*
X60322429Y35493744D01*
X60337778Y35527995D01*
X60366995Y35538875D01*
X60394875Y35539750D01*
X60474250Y35539750D01*
X60474250Y34428500D01*
X60394875Y34428500D01*
X60355508Y34431207D01*
X60331936Y34447965D01*
X60320110Y34491729D01*
X60315981Y34575455D01*
X60315500Y34682500D01*
X60315500Y34936500D01*
X59966250Y34936500D01*
X59966250Y34682500D01*
X59965404Y34556527D01*
X59960167Y34481097D01*
X59946491Y34443253D01*
X59920326Y34430042D01*
X59886875Y34428500D01*
X59807500Y34428500D01*
X59807500Y35539750D01*
X59886875Y35539750D01*
X59927248Y35536783D01*
G37*
G36*
X61210347Y35538954D02*
G01*
X61306803Y35535140D01*
X61362219Y35526170D01*
X61387820Y35509904D01*
X61394834Y35484205D01*
X61395000Y35476250D01*
X61389697Y35444612D01*
X61365273Y35425650D01*
X61308954Y35416172D01*
X61207969Y35412984D01*
X61141000Y35412750D01*
X60887000Y35412750D01*
X60887000Y35063500D01*
X61109250Y35063500D01*
X61226049Y35061787D01*
X61292961Y35054062D01*
X61323565Y35036444D01*
X61331438Y35005055D01*
X61331500Y35000000D01*
X61325503Y34966629D01*
X61298463Y34947511D01*
X61236802Y34938767D01*
X61126941Y34936518D01*
X61109250Y34936500D01*
X60887000Y34936500D01*
X60887000Y34555500D01*
X61141000Y34555500D01*
X61267553Y34554175D01*
X61343400Y34548069D01*
X61381313Y34533989D01*
X61394065Y34508743D01*
X61395000Y34492000D01*
X61390820Y34463672D01*
X61370795Y34445300D01*
X61323699Y34434744D01*
X61238306Y34429868D01*
X61103388Y34428532D01*
X61061625Y34428500D01*
X60728250Y34428500D01*
X60728250Y35539750D01*
X61061625Y35539750D01*
X61210347Y35538954D01*
G37*
G36*
X61884688Y35539750D02*
G01*
X62012753Y35537033D01*
X62097732Y35525543D01*
X62159926Y35500276D01*
X62218063Y35457553D01*
X62279669Y35395971D01*
X62308304Y35330362D01*
X62315721Y35232417D01*
X62315750Y35222251D01*
X62309637Y35120838D01*
X62283199Y35053732D01*
X62224286Y34992271D01*
X62214868Y34984259D01*
X62113986Y34899372D01*
X62346980Y34428500D01*
X62257727Y34428500D01*
X62210879Y34434014D01*
X62173467Y34458399D01*
X62135906Y34513426D01*
X62088615Y34610864D01*
X62063827Y34666625D01*
X62008014Y34787279D01*
X61965448Y34859630D01*
X61927550Y34895006D01*
X61885738Y34904734D01*
X61883464Y34904750D01*
X61844935Y34901325D01*
X61822347Y34882144D01*
X61811454Y34833850D01*
X61808009Y34743086D01*
X61807750Y34666625D01*
X61806760Y34545505D01*
X61800820Y34474507D01*
X61785471Y34440256D01*
X61756254Y34429376D01*
X61728375Y34428500D01*
X61649000Y34428500D01*
X61649000Y35031750D01*
X61807750Y35031750D01*
X61949893Y35031750D01*
X62048442Y35039140D01*
X62108363Y35067589D01*
X62141841Y35107764D01*
X62173660Y35201840D01*
X62161086Y35297944D01*
X62108661Y35371131D01*
X62091935Y35381838D01*
X62020943Y35403108D01*
X61927178Y35412705D01*
X61920962Y35412750D01*
X61807750Y35412750D01*
X61807750Y35031750D01*
X61649000Y35031750D01*
X61649000Y35539750D01*
X61884688Y35539750D01*
G37*
%TO.C,MCU1*%
X124460000Y30830000D02*
X124460000Y-2190000D01*
X124460000Y-2190000D02*
X142240000Y-2190000D01*
X142240000Y-2190000D02*
X142240000Y30830000D01*
X142240000Y30830000D02*
X124460000Y30830000D01*
X127000000Y28290000D02*
X127000000Y25750000D01*
X127000000Y28290000D02*
X124460000Y28290000D01*
X127000000Y25750000D02*
X124460000Y25750000D01*
%TD*%
D11*
%TO.C,MCU1*%
X125730000Y27020000D03*
D12*
X125730000Y24480000D03*
X125730000Y21940000D03*
X125730000Y19400000D03*
X125730000Y16860000D03*
X125730000Y14320000D03*
X125730000Y11780000D03*
X125730000Y9240000D03*
X125730000Y6700000D03*
X125730000Y4160000D03*
X125730000Y1620000D03*
X125730000Y-920000D03*
X140970000Y27020000D03*
X140970000Y24480000D03*
X140970000Y21940000D03*
X140970000Y19400000D03*
X140970000Y16860000D03*
X140970000Y14320000D03*
X140970000Y11780000D03*
X140970000Y9240000D03*
X140970000Y6700000D03*
X140970000Y4160000D03*
X140970000Y1620000D03*
X140970000Y-920000D03*
%TD*%
M02*
