%TF.GenerationSoftware,KiCad,Pcbnew,(6.0.8-1)-1*%
%TF.CreationDate,2023-01-29T19:27:54+03:00*%
%TF.ProjectId,lol,6c6f6c2e-6b69-4636-9164-5f7063625858,v1.0.0*%
%TF.SameCoordinates,Original*%
%TF.FileFunction,Profile,NP*%
%FSLAX46Y46*%
G04 Gerber Fmt 4.6, Leading zero omitted, Abs format (unit mm)*
G04 Created by KiCad (PCBNEW (6.0.8-1)-1) date 2023-01-29 19:27:54*
%MOMM*%
%LPD*%
G01*
G04 APERTURE LIST*
%TA.AperFunction,Profile*%
%ADD10C,0.150000*%
%TD*%
G04 APERTURE END LIST*
D10*
X11525000Y-10525000D02*
X24575000Y-10525000D01*
X8525000Y-7525000D02*
X8525000Y26575000D01*
X11525000Y29575000D02*
X43625000Y29575000D01*
X48625000Y-26575000D02*
X48625000Y-8525000D01*
X30575000Y-29575000D02*
X45625000Y-29575000D01*
X27575000Y-26575000D02*
X27575000Y-13525000D01*
X51625000Y-5525000D02*
X62675000Y-5525000D01*
X49625000Y36575000D02*
X65675000Y36575000D01*
X46625000Y32575000D02*
X46625000Y33575000D01*
X68675000Y-21575000D02*
X81725000Y-21575000D01*
X65675000Y-18575000D02*
X65675000Y-8525000D01*
X65675000Y37575000D02*
X86725000Y37575000D01*
X86725000Y37575000D02*
X86725000Y34575000D01*
X65675000Y36575000D02*
X65675000Y37575000D01*
X84725000Y-27575000D02*
X84725000Y-24575000D01*
X89725000Y31575000D02*
X139875000Y31575000D01*
X124825000Y-31710506D02*
X124825000Y-6375000D01*
X142875000Y-375000D02*
X142875000Y28575000D01*
X139875000Y-3375000D02*
X127825000Y-3375000D01*
X78200000Y-48625000D02*
X97272355Y-48625000D01*
X75200000Y-45625000D02*
X75200000Y-30575000D01*
X78200000Y-27575000D02*
X84725000Y-27575000D01*
X97921674Y-48696112D02*
X115562002Y-52606879D01*
X126557145Y-34429429D02*
X140093023Y-40741313D01*
X135183687Y-58368023D02*
X141544092Y-44728091D01*
X116180539Y-52816843D02*
X131196909Y-59819092D01*
X27575000Y-13525000D02*
G75*
G03*
X24575000Y-10525000I-3000000J0D01*
G01*
X27575000Y-26575000D02*
G75*
G03*
X30575000Y-29575000I3000000J0D01*
G01*
X45625000Y-29575000D02*
G75*
G03*
X48625000Y-26575000I0J3000000D01*
G01*
X51625000Y-5525000D02*
G75*
G03*
X48625000Y-8525000I0J-3000000D01*
G01*
X65675000Y-8525000D02*
G75*
G03*
X62675000Y-5525000I-3000000J0D01*
G01*
X65675000Y-18575000D02*
G75*
G03*
X68675000Y-21575000I3000000J0D01*
G01*
X84725000Y-24575000D02*
G75*
G03*
X81725000Y-21575000I-3000000J0D01*
G01*
X78200000Y-27575000D02*
G75*
G03*
X75200000Y-30575000I0J-3000000D01*
G01*
X75200000Y-45625000D02*
G75*
G03*
X78200000Y-48625000I3000000J0D01*
G01*
X97921674Y-48696112D02*
G75*
G03*
X97272355Y-48625000I-649319J-2928888D01*
G01*
X116180539Y-52816843D02*
G75*
G03*
X115562003Y-52606878I-1267855J-2718924D01*
G01*
X131196909Y-59819092D02*
G75*
G03*
X135183688Y-58368023I1267855J2718924D01*
G01*
X141544092Y-44728091D02*
G75*
G03*
X140093024Y-40741313I-2718923J1267855D01*
G01*
X124825000Y-31710506D02*
G75*
G03*
X126557145Y-34429429I3000000J0D01*
G01*
X127825000Y-3375000D02*
G75*
G03*
X124825000Y-6375000I0J-3000000D01*
G01*
X139875000Y-3375000D02*
G75*
G03*
X142875000Y-375000I0J3000000D01*
G01*
X142875000Y28575000D02*
G75*
G03*
X139875000Y31575000I-3000000J0D01*
G01*
X86725000Y34575000D02*
G75*
G03*
X89725000Y31575000I3000000J0D01*
G01*
X49625000Y36575000D02*
G75*
G03*
X46625000Y33575000I0J-3000000D01*
G01*
X43625000Y29575000D02*
G75*
G03*
X46625000Y32575000I0J3000000D01*
G01*
X11525000Y29575000D02*
G75*
G03*
X8525000Y26575000I0J-3000000D01*
G01*
X8525000Y-7525000D02*
G75*
G03*
X11525000Y-10525000I3000000J0D01*
G01*
M02*
